<?xml version="1.0" encoding="UTF-8" standalone="no"?>
<!-- Created with Inkscape (http://www.inkscape.org/) -->

<svg
   width="12.231635mm"
   height="7.1133814mm"
   viewBox="0 0 12.231635 7.1133813"
   version="1.1"
   id="svg1"
   inkscape:version="1.3 (0e150ed6c4, 2023-07-21)"
   sodipodi:docname="graphics.svg"
   xml:space="preserve"
   xmlns:inkscape="http://www.inkscape.org/namespaces/inkscape"
   xmlns:sodipodi="http://sodipodi.sourceforge.net/DTD/sodipodi-0.dtd"
   xmlns:xlink="http://www.w3.org/1999/xlink"
   xmlns="http://www.w3.org/2000/svg"
   xmlns:svg="http://www.w3.org/2000/svg"><sodipodi:namedview
     id="namedview1"
     pagecolor="#ffffff"
     bordercolor="#000000"
     borderopacity="0.25"
     inkscape:showpageshadow="2"
     inkscape:pageopacity="0.0"
     inkscape:pagecheckerboard="0"
     inkscape:deskcolor="#d1d1d1"
     inkscape:document-units="mm"
     inkscape:zoom="2.7876603"
     inkscape:cx="270.11899"
     inkscape:cy="90.57775"
     inkscape:window-width="1920"
     inkscape:window-height="991"
     inkscape:window-x="-9"
     inkscape:window-y="-9"
     inkscape:window-maximized="1"
     inkscape:current-layer="layer1"><inkscape:page
       x="3.2876261e-07"
       y="1.2200222e-06"
       width="12.231635"
       height="7.1133814"
       id="page1"
       margin="0"
       bleed="0" /></sodipodi:namedview><defs
     id="defs1"><linearGradient
       id="linearGradient50"
       inkscape:collect="always"><stop
         style="stop-color:#46a7f8;stop-opacity:1;"
         offset="0"
         id="stop49" /><stop
         style="stop-color:#0a52a8;stop-opacity:1;"
         offset="1"
         id="stop50" /></linearGradient><linearGradient
       inkscape:collect="always"
       xlink:href="#linearGradient50"
       id="linearGradient48-2"
       gradientUnits="userSpaceOnUse"
       x1="182.54614"
       y1="95.437996"
       x2="182.55309"
       y2="97.644173" /><filter
       inkscape:collect="always"
       style="color-interpolation-filters:sRGB"
       id="filter45-1-4-9"
       x="-0.098572758"
       y="-0.1258563"
       width="1.1971455"
       height="1.2517126"><feGaussianBlur
         inkscape:collect="always"
         stdDeviation="0.13727345"
         id="feGaussianBlur45-8-0-9" /></filter></defs><g
     inkscape:label="Layer 1"
     inkscape:groupmode="layer"
     id="layer1"
     transform="translate(-192.60569,-94.09071)"><g
       id="g46-3-9-4"
       inkscape:export-filename="themes\clashy\graphics\check-button.svg"
       inkscape:export-xdpi="96"
       inkscape:export-ydpi="96"
       transform="matrix(-1,0,0,1,384.42243,-0.27141517)"><path
         id="rect29-7-3-4-7"
         style="fill:#0a52a8;fill-opacity:1;stroke:#0a52a8;stroke-width:0.394;stroke-linecap:round;stroke-linejoin:round;paint-order:markers fill stroke"
         d="m 182.76176,95.688818 h 6.04047 c 1.51656,0 2.74354,0.455327 2.79327,1.959367 0.001,0.0315 0.002,0.8037 0.002,0.83548 0,1.548345 -1.2465,2.794845 -2.79484,2.794845 h -6.04047 c -1.54835,0 -2.79485,-1.2465 -2.79485,-2.794845 0,-0.0437 9.9e-4,-0.82765 0.003,-0.87082 0.0676,-1.48739 1.28723,-1.924027 2.7919,-1.924027 z"
         sodipodi:nodetypes="sssssssss"
         inkscape:export-filename="themes\clashy\graphics\check-button.svg"
         inkscape:export-xdpi="96"
         inkscape:export-ydpi="96" /><rect
         style="fill:#bde2ff;fill-opacity:1;stroke:none;stroke-width:0.394;stroke-linecap:round;stroke-linejoin:round;stroke-dasharray:none;stroke-opacity:1;paint-order:markers fill stroke"
         id="rect29-77-6-5"
         width="11.630155"
         height="5.5896864"
         x="179.89667"
         y="94.807495"
         ry="2.7948432" /><path
         id="path39-3-8-9-0"
         style="color:#000000;fill:#0c4180;fill-opacity:1;stroke-width:0.990468;stroke-linecap:round;stroke-linejoin:round;-inkscape-stroke:none;paint-order:markers fill stroke"
         d="m 191.72029,98.593496 v -0.305055 c 0.002,0.0439 0.006,0.08756 0.006,0.132054 0,0.05814 -0.002,0.115696 -0.006,0.173001 z m -5.3e-4,-0.645429 c -0.011,-1.524022 -1.24078,-2.748062 -2.7675,-2.748062 h -6.40413 c -1.38981,0 -2.53396,1.0142 -2.73629,2.345756 -4.4e-4,-0.08298 -9.9e-4,-0.210287 -9.9e-4,-0.222133 0,-1.638294 1.32524,-2.9615 2.96354,-2.9615 h 5.98391 c 1.63829,0 2.96354,1.323206 2.96354,2.9615 0,0.01783 -0.002,0.214952 -0.002,0.414075 -1.5e-4,0.07565 -1e-5,0.144451 0,0.210364 z" /><path
         id="path39-3-1-7-4-7"
         style="color:#000000;fill:#0c4180;fill-opacity:1;stroke-width:1.02416;stroke-linecap:round;stroke-linejoin:round;-inkscape-stroke:none;paint-order:markers fill stroke"
         d="m 191.81074,96.986034 v 0.320268 c 0.002,-0.04609 0.006,-0.09193 0.006,-0.138639 0,-0.06104 -0.002,-0.121466 -0.006,-0.181629 z m -5.4e-4,0.677615 c -0.0111,1.60002 -1.26364,2.885091 -2.8185,2.885091 h -6.60597 c -1.41542,0 -2.58065,-1.82689 -2.78671,-3.224847 -4.6e-4,0.08713 -0.001,0.982897 -0.001,0.995335 0,1.719982 1.34967,3.109182 3.01816,3.109182 h 6.17801 c 1.66848,0 3.01815,-1.3892 3.01815,-3.109182 0,-0.01872 -0.002,-0.225672 -0.002,-0.434725 -1.4e-4,-0.07942 -1e-5,-0.151653 0,-0.220854 z"
         sodipodi:nodetypes="ccsccsscssssccc" /><path
         id="rect28-4-6-2"
         style="fill:#0c4180;fill-opacity:1;stroke-width:0.745253;stroke-linecap:round;stroke-linejoin:round;paint-order:markers fill stroke"
         d="m 182.62637,96.691145 c -1.2338,0 2.35964,0.665559 2.36009,0.781283 0.004,0.890364 0.006,0.391597 0.003,0.615391 -0.0167,1.313986 -1.05381,2.372011 -2.3628,2.372011 -1.309,0 -2.33563,-1.047891 -2.36281,-2.372011 -0.005,-0.224177 -0.003,-0.367511 -0.0108,-0.560713 -0.003,-0.07341 3.59456,-0.835961 2.37361,-0.835961 z"
         sodipodi:nodetypes="ssssssss" /><rect
         style="fill:#0a52a8;fill-opacity:1;stroke:none;stroke-width:0.746704;stroke-linecap:round;stroke-linejoin:round;stroke-opacity:1;paint-order:markers fill stroke"
         id="rect28-2-3-8-5"
         width="4.7440252"
         height="4.7440252"
         x="180.2448"
         y="94.972061"
         ry="2.3720126" /><rect
         style="fill:none;fill-opacity:1;stroke:#246ec8;stroke-width:0.393999;stroke-linecap:round;stroke-linejoin:round;stroke-dasharray:none;stroke-opacity:1;paint-order:markers fill stroke"
         id="rect45-5-1-2"
         width="11.836916"
         height="5.6501875"
         x="179.7821"
         y="94.583733"
         ry="2.8250937" /><ellipse
         style="opacity:0.529412;fill:url(#linearGradient48-2);fill-opacity:1;stroke:none;stroke-width:0.393999;stroke-linecap:round;stroke-linejoin:round;stroke-dasharray:none;stroke-opacity:1;paint-order:markers fill stroke;filter:url(#filter45-1-4-9)"
         id="path45-9-0-3"
         cx="182.55406"
         cy="96.647835"
         rx="1.6711324"
         ry="1.3088589" /></g></g></svg>
