<?xml version="1.0" encoding="UTF-8" standalone="no"?>
<!-- Created with Inkscape (http://www.inkscape.org/) -->

<svg
   width="12.230916mm"
   height="6.204577mm"
   viewBox="0 0 12.230916 6.2045769"
   version="1.1"
   id="svg1"
   inkscape:version="1.3 (0e150ed6c4, 2023-07-21)"
   sodipodi:docname="graphics.svg"
   xml:space="preserve"
   xmlns:inkscape="http://www.inkscape.org/namespaces/inkscape"
   xmlns:sodipodi="http://sodipodi.sourceforge.net/DTD/sodipodi-0.dtd"
   xmlns:xlink="http://www.w3.org/1999/xlink"
   xmlns="http://www.w3.org/2000/svg"
   xmlns:svg="http://www.w3.org/2000/svg"><sodipodi:namedview
     id="namedview1"
     pagecolor="#ffffff"
     bordercolor="#000000"
     borderopacity="0.25"
     inkscape:showpageshadow="2"
     inkscape:pageopacity="0.0"
     inkscape:pagecheckerboard="0"
     inkscape:deskcolor="#d1d1d1"
     inkscape:document-units="mm"
     inkscape:zoom="2.3533454"
     inkscape:cx="278.75211"
     inkscape:cy="84.772936"
     inkscape:window-width="1920"
     inkscape:window-height="991"
     inkscape:window-x="-9"
     inkscape:window-y="-9"
     inkscape:window-maximized="1"
     inkscape:current-layer="layer1"><inkscape:page
       x="1.4227198e-06"
       y="-7.4818601e-10"
       width="12.230916"
       height="6.204577"
       id="page1"
       margin="0"
       bleed="0" /></sodipodi:namedview><defs
     id="defs1"><linearGradient
       id="linearGradient52"
       inkscape:collect="always"><stop
         style="stop-color:#ffffff;stop-opacity:1;"
         offset="0"
         id="stop51" /><stop
         style="stop-color:#ffffff;stop-opacity:0;"
         offset="1"
         id="stop52" /></linearGradient><filter
       inkscape:collect="always"
       style="color-interpolation-filters:sRGB"
       id="filter45-8-3"
       x="-0.098572758"
       y="-0.1258563"
       width="1.1971455"
       height="1.2517126"><feGaussianBlur
         inkscape:collect="always"
         stdDeviation="0.13727345"
         id="feGaussianBlur45-0-4" /></filter><linearGradient
       inkscape:collect="always"
       xlink:href="#linearGradient52"
       id="linearGradient53"
       gradientUnits="userSpaceOnUse"
       gradientTransform="translate(0,0.12230354)"
       x1="182.54614"
       y1="95.437996"
       x2="182.55309"
       y2="97.644173" /></defs><g
     inkscape:label="Layer 1"
     inkscape:groupmode="layer"
     id="layer1"
     transform="translate(-166.58043,-102.04325)"><g
       id="g46-5-2"
       inkscape:export-filename="themes\clashy\graphics\check-button-unchecked-disabled.svg"
       inkscape:export-xdpi="96"
       inkscape:export-ydpi="96"
       transform="matrix(-1,0,0,1,358.39645,7.5021297)"><rect
         style="fill:#878787;fill-opacity:1;stroke:none;stroke-width:0.394;stroke-linecap:round;stroke-linejoin:round;stroke-dasharray:none;stroke-opacity:1;paint-order:markers fill stroke"
         id="rect29-8-2"
         width="11.630155"
         height="5.5896864"
         x="179.89667"
         y="94.807495"
         ry="2.7948432" /><path
         id="path39-3-4-3"
         style="color:#000000;fill:#878787;fill-opacity:1;stroke-width:0.956321;stroke-linecap:round;stroke-linejoin:round;-inkscape-stroke:none;paint-order:markers fill stroke"
         d="m 191.72029,98.593496 v -0.284384 c 0.002,0.04093 0.006,0.08163 0.006,0.123106 0,0.0542 -0.002,0.107856 -0.006,0.161278 z m -5.3e-4,-0.601693 c -0.011,-1.420751 -1.24078,-2.561847 -2.7675,-2.561847 h -6.40413 c -1.38981,0 -2.53396,0.945475 -2.73629,2.186802 -4.4e-4,-0.07736 -9.9e-4,-0.196038 -9.9e-4,-0.207081 0,-1.527279 1.32524,-2.760822 2.96354,-2.760822 h 5.98391 c 1.63829,0 2.96354,1.233543 2.96354,2.760822 0,0.01662 -0.002,0.200386 -0.002,0.386016 -1.5e-4,0.07052 -1e-5,0.134663 0,0.19611 z" /><path
         id="path39-3-1-4-2"
         style="color:#000000;fill:#878787;fill-opacity:1;stroke-width:1.02416;stroke-linecap:round;stroke-linejoin:round;-inkscape-stroke:none;paint-order:markers fill stroke"
         d="m 190.59123,96.472373 0.50712,0.428938 c 0.002,-0.04609 0.0664,-0.09193 0.0543,-0.235234 -0.005,-0.06083 -0.55742,-0.133541 -0.56142,-0.193704 z m 0.79637,0.436128 c -0.0111,1.60002 -0.84104,2.957537 -2.3959,2.957537 h -6.60597 c -1.41542,0 -2.41161,-1.621625 -2.61767,-3.019582 -4.6e-4,0.08713 -0.17004,0.777632 -0.17004,0.79007 0,1.719982 1.34967,3.109174 3.01816,3.109174 h 6.17801 c 1.66848,0 3.01815,-1.389192 3.01815,-3.109174 0,-0.01872 -0.17104,-0.225672 -0.17104,-0.434725 -1.4e-4,-0.07942 -0.15698,-0.175802 -0.15697,-0.245003 z"
         sodipodi:nodetypes="ccsccsscssssccc" /><path
         id="rect28-5-9"
         style="fill:#b1b1b1;fill-opacity:1;stroke-width:0.745253;stroke-linecap:round;stroke-linejoin:round;paint-order:markers fill stroke"
         d="m 182.62637,96.383875 c -1.2338,0 2.35964,0.665559 2.36009,0.781283 0.004,0.890364 0.006,0.391597 0.003,0.615391 -0.0167,1.313986 -1.05381,2.372011 -2.3628,2.372011 -1.309,0 -2.33563,-1.047891 -2.36281,-2.372011 -0.005,-0.224177 -0.003,-0.367511 -0.0108,-0.560713 -0.003,-0.07341 3.59456,-0.835961 2.37361,-0.835961 z"
         sodipodi:nodetypes="ssssssss" /><rect
         style="fill:#bbbbbb;fill-opacity:1;stroke:none;stroke-width:0.746704;stroke-linecap:round;stroke-linejoin:round;stroke-opacity:1;paint-order:markers fill stroke"
         id="rect28-2-0-6"
         width="4.7440252"
         height="4.7440252"
         x="180.2448"
         y="95.094368"
         ry="2.3720126" /><rect
         style="fill:none;fill-opacity:1;stroke:#b1b1b1;stroke-width:0.393999;stroke-linecap:round;stroke-linejoin:round;stroke-dasharray:none;stroke-opacity:1;paint-order:markers fill stroke"
         id="rect45-6-7"
         width="11.836916"
         height="5.6501875"
         x="179.7821"
         y="94.738121"
         ry="2.8250937" /><ellipse
         style="opacity:0.261176;fill:url(#linearGradient53);fill-opacity:1;stroke:none;stroke-width:0.393999;stroke-linecap:round;stroke-linejoin:round;stroke-dasharray:none;stroke-opacity:1;paint-order:markers fill stroke;filter:url(#filter45-8-3)"
         id="path45-2-4"
         cx="182.55406"
         cy="96.770142"
         rx="1.6711324"
         ry="1.3088589" /></g></g></svg>
