<?xml version="1.0" encoding="UTF-8" standalone="no"?>
<!-- Created with Inkscape (http://www.inkscape.org/) -->

<svg
   width="7.1804194mm"
   height="8.1141901mm"
   viewBox="0 0 7.1804196 8.11419"
   version="1.1"
   id="svg1"
   inkscape:version="1.2.2 (732a01da63, 2022-12-09)"
   sodipodi:docname="graphics.svg"
   xml:space="preserve"
   xmlns:inkscape="http://www.inkscape.org/namespaces/inkscape"
   xmlns:sodipodi="http://sodipodi.sourceforge.net/DTD/sodipodi-0.dtd"
   xmlns:xlink="http://www.w3.org/1999/xlink"
   xmlns="http://www.w3.org/2000/svg"
   xmlns:svg="http://www.w3.org/2000/svg"><sodipodi:namedview
     id="namedview1"
     pagecolor="#ffffff"
     bordercolor="#000000"
     borderopacity="0.25"
     inkscape:showpageshadow="2"
     inkscape:pageopacity="0.0"
     inkscape:pagecheckerboard="0"
     inkscape:deskcolor="#d1d1d1"
     inkscape:document-units="mm"
     inkscape:zoom="2"
     inkscape:cx="486.25"
     inkscape:cy="152"
     inkscape:window-width="1920"
     inkscape:window-height="1009"
     inkscape:window-x="-8"
     inkscape:window-y="-8"
     inkscape:window-maximized="1"
     inkscape:current-layer="layer1"
     showgrid="false"
     showguides="false" /><defs
     id="defs1"><linearGradient
       inkscape:collect="always"
       id="linearGradient10000"><stop
         style="stop-color:#350000;stop-opacity:1;"
         offset="0"
         id="stop9996" /><stop
         style="stop-color:#b50000;stop-opacity:1;"
         offset="1"
         id="stop9998" /></linearGradient><linearGradient
       inkscape:collect="always"
       xlink:href="#linearGradient10000"
       id="linearGradient10002"
       x1="255.10399"
       y1="117.53705"
       x2="259.80347"
       y2="121.84009"
       gradientUnits="userSpaceOnUse" /></defs><g
     inkscape:label="Layer 1"
     inkscape:groupmode="layer"
     id="layer1"
     transform="translate(-254.0623,-115.51454)"><g
       id="g10018"
       inkscape:export-filename="themes\clashy\graphics\gem.svg"
       inkscape:export-xdpi="96"
       inkscape:export-ydpi="96"
       transform="matrix(1.0662806,0,0,0.99698351,-16.852938,0.36068627)"><path
         id="path8589-4-5"
         style="color:#000000;fill:#fc1d0c;fill-opacity:1;stroke:url(#linearGradient10002);stroke-width:0.72;stroke-linecap:round;stroke-linejoin:round;stroke-miterlimit:8.1;stroke-dasharray:none;stroke-opacity:1;paint-order:markers fill stroke"
         d="m 257.43553,123.28097 c 0.003,-8.6e-4 0.007,-8.6e-4 0.0118,-0.002 l -0.0347,-0.003 c 0.007,0.002 0.0152,0.003 0.0231,0.005 z m 0.0771,-0.003 c 0.0773,-0.0135 0.15211,-0.0388 0.21847,-0.0873 0.009,-0.007 0.0176,-0.0118 0.0251,-0.0201 1.1191,-1.12395 1.95916,-2.27276 2.64039,-3.34172 v -0.002 c 0.0662,-0.14857 0.0696,-0.32196 0.007,-0.47278 -0.71234,-1.08736 -1.55936,-2.20643 -2.67165,-3.38104 -0.1126,-0.0831 -0.24609,-0.11346 -0.38044,-0.11059 -0.0707,0.0176 -0.13844,0.047 -0.19982,0.0922 -1.08431,1.0882 -1.94853,2.1869 -2.67164,3.38106 -0.0618,0.15077 -0.0586,0.32424 0.007,0.47277 v 0.002 c 0.69131,1.14907 1.65678,2.1845 2.64038,3.34169 0.007,0.007 0.0152,0.0118 0.0251,0.0201 0.10045,0.0733 0.2204,0.0937 0.33957,0.10146 0.005,-8.6e-4 0.0118,-0.003 0.0191,-0.003 l -0.003,0.007 c 8.6e-4,0 0.002,3.4e-4 0.003,5.1e-4 z"
         sodipodi:nodetypes="cccccccccccccccccccccccc" /><path
         style="fill:#e01a0b;fill-opacity:1;stroke:none;stroke-width:0.264583px;stroke-linecap:butt;stroke-linejoin:miter;stroke-opacity:1"
         d="m 260.19612,119.59143 -1.0914,-0.009 c 0,0 -0.35553,-0.78548 -0.66146,-1.13274 -0.30592,-0.34727 -0.97565,-0.93431 -0.97565,-0.93431 l -0.0268,-1.56795 c 0.2964,0.0219 0.84643,0.75463 1.55683,1.65063 0.70478,0.88892 1.28984,1.63711 1.36425,1.89342 z"
         id="path8704-6"
         sodipodi:nodetypes="ccsccscc" /><path
         style="fill:#ffe6e4;fill-opacity:0.901961;stroke:none;stroke-width:0.264583px;stroke-linecap:butt;stroke-linejoin:miter;stroke-opacity:1"
         d="m 254.65218,119.60461 1.0914,-0.009 c 0,0 0.35553,-0.78548 0.66146,-1.13274 0.30592,-0.34727 0.97565,-0.93431 0.97565,-0.93431 l 0.0268,-1.56795 c -0.2964,0.0219 -0.84643,0.75463 -1.55683,1.65063 -0.70478,0.88892 -1.28984,1.63711 -1.36425,1.89342 z"
         id="path8704-6-0"
         sodipodi:nodetypes="ccsccscc" /><path
         style="fill:#a82015;fill-opacity:1;stroke:none;stroke-width:0.260319px;stroke-linecap:butt;stroke-linejoin:miter;stroke-opacity:1"
         d="m 260.20251,119.66521 -1.0914,0.009 c 0,0 -0.35553,0.76037 -0.66146,1.09652 -0.30592,0.33617 -0.97565,0.90444 -0.97565,0.90444 l -0.0268,1.51782 c 0.2964,-0.0212 0.84643,-0.7305 1.55683,-1.59785 0.70478,-0.8605 1.28984,-1.58477 1.36425,-1.83289 z"
         id="path8704-6-2"
         sodipodi:nodetypes="ccsccscc" /><path
         style="fill:#e01a0b;fill-opacity:1;stroke:none;stroke-width:0.260319px;stroke-linecap:butt;stroke-linejoin:miter;stroke-opacity:1"
         d="m 254.65857,119.65245 1.0914,0.009 c 0,0 0.35553,0.76037 0.66146,1.09653 0.30592,0.33616 0.97565,0.90443 0.97565,0.90443 l 0.0268,1.51782 c -0.2964,-0.0212 -0.84643,-0.7305 -1.55683,-1.59785 -0.70478,-0.8605 -1.28984,-1.58477 -1.36425,-1.83289 z"
         id="path8704-6-0-2"
         sodipodi:nodetypes="ccsccscc" /><path
         id="path8589-4"
         style="color:#000000;fill:#fc1d0c;fill-opacity:1;stroke:none;stroke-width:0.248675;stroke-linecap:round;stroke-linejoin:round;stroke-miterlimit:8.1;stroke-dasharray:none;stroke-opacity:1;paint-order:markers fill stroke"
         d="m 257.46128,121.81914 c 0.002,-5.8e-4 0.004,-5.8e-4 0.007,-8.5e-4 l -0.0206,-0.002 c 0.004,8.6e-4 0.009,0.002 0.0137,0.003 z m 0.0457,-0.002 c 0.0458,-0.008 0.0901,-0.023 0.1294,-0.0517 0.005,-0.004 0.0104,-0.007 0.0149,-0.0119 0.66284,-0.66572 1.16041,-1.34616 1.5639,-1.97931 v -8.5e-4 c 0.0392,-0.088 0.0412,-0.1907 0.004,-0.28003 -0.42192,-0.64405 -0.92361,-1.30687 -1.58242,-2.0026 -0.0667,-0.0492 -0.14576,-0.0672 -0.22534,-0.0655 -0.0419,0.0104 -0.082,0.0278 -0.11835,0.0546 -0.64224,0.64454 -1.15412,1.2953 -1.58242,2.00261 -0.0366,0.0893 -0.0347,0.19205 0.004,0.28002 v 8.6e-4 c 0.40946,0.6806 0.98131,1.29388 1.5639,1.97929 0.004,0.004 0.009,0.007 0.0149,0.0119 0.0595,0.0434 0.13055,0.0555 0.20113,0.0601 0.003,-5.7e-4 0.007,-0.002 0.0113,-0.002 l -0.002,0.004 c 5.7e-4,0 8.5e-4,2e-4 0.002,3e-4 z"
         sodipodi:nodetypes="cccccccccccccccccccccccc" /></g></g></svg>
