<?xml version="1.0" encoding="UTF-8" standalone="no"?>
<!-- Created with Inkscape (http://www.inkscape.org/) -->

<svg
   width="59.845093mm"
   height="27.33935mm"
   viewBox="0 0 59.845094 27.33935"
   version="1.1"
   id="svg1"
   inkscape:version="1.2.2 (732a01da63, 2022-12-09)"
   sodipodi:docname="graphics.svg"
   xml:space="preserve"
   xmlns:inkscape="http://www.inkscape.org/namespaces/inkscape"
   xmlns:sodipodi="http://sodipodi.sourceforge.net/DTD/sodipodi-0.dtd"
   xmlns:xlink="http://www.w3.org/1999/xlink"
   xmlns="http://www.w3.org/2000/svg"
   xmlns:svg="http://www.w3.org/2000/svg"><sodipodi:namedview
     id="namedview1"
     pagecolor="#ffffff"
     bordercolor="#000000"
     borderopacity="0.25"
     inkscape:showpageshadow="2"
     inkscape:pageopacity="0.0"
     inkscape:pagecheckerboard="0"
     inkscape:deskcolor="#d1d1d1"
     inkscape:document-units="mm"
     inkscape:zoom="1"
     inkscape:cx="-317.5"
     inkscape:cy="-741"
     inkscape:window-width="1920"
     inkscape:window-height="1009"
     inkscape:window-x="-8"
     inkscape:window-y="-8"
     inkscape:window-maximized="1"
     inkscape:current-layer="layer1"
     showgrid="false"
     showguides="false" /><defs
     id="defs1"><linearGradient
       inkscape:collect="always"
       id="linearGradient3588"><stop
         style="stop-color:#cd1e10;stop-opacity:1;"
         offset="0"
         id="stop3584" /><stop
         style="stop-color:#991c12;stop-opacity:1;"
         offset="1"
         id="stop3586" /></linearGradient><radialGradient
       inkscape:collect="always"
       xlink:href="#linearGradient3588"
       id="radialGradient3592-5-3-5"
       cx="133.57489"
       cy="24.016247"
       fx="133.57489"
       fy="24.016247"
       r="21.705015"
       gradientTransform="matrix(-0.99999694,-0.00247489,-0.0043098,1.7414069,175.92079,-135.2563)"
       gradientUnits="userSpaceOnUse" /></defs><g
     inkscape:label="Layer 1"
     inkscape:groupmode="layer"
     id="layer1"
     transform="translate(-29.163994,38.3388)"><g
       id="g7195"
       inkscape:export-filename="themes\clashy\graphics\ribbon.svg"
       inkscape:export-xdpi="96"
       inkscape:export-ydpi="96"
       transform="translate(16.926098,59.673105)"><g
         id="g2293-9-57-8"
         inkscape:export-filename="themes\clashy\graphics\ribbon.svg"
         inkscape:export-xdpi="96"
         inkscape:export-ydpi="96"
         transform="translate(-90.651713,-115.75451)"><path
           id="rect840-9-2-5-9-9-0-9-50-2"
           style="fill:#a00c00;fill-opacity:1;stroke-width:0.535489;stroke-linecap:round;stroke-linejoin:round;stroke-miterlimit:8.1;paint-order:markers fill stroke;stop-color:#000000"
           d="m 109.09539,45.081964 -0.68262,-8.234684 -5.52316,-4.217811 c 4.91412,-4.286972 7.39232,-5.264687 12.36691,-6.285801 4.55071,-0.934106 7.36515,4.054845 7.41128,1.935565 l -4.17397,0.280633 c -0.26663,3.093188 1.1086,5.575392 3.67499,8.144884 0.29987,0.319484 0.50235,0.668351 0.50298,1.077576 h -0.003 c 0.33544,0.857172 -3.21219,0.549388 -6.42219,2.084207 -3.02338,1.445589 -4.89936,3.143229 -7.15122,5.215431 z"
           sodipodi:nodetypes="cccscccccsc" /><path
           id="rect840-9-2-5-9-9-0-9-50-2-0"
           style="fill:#a00c00;fill-opacity:1;stroke-width:0.535489;stroke-linecap:round;stroke-linejoin:round;stroke-miterlimit:8.1;paint-order:markers fill stroke;stop-color:#000000"
           d="m 156.52892,45.027158 0.68262,-8.234684 5.52316,-4.217811 c -4.91412,-4.286972 -7.39232,-5.264687 -12.36691,-6.285801 -4.55071,-0.934106 -7.36515,4.054845 -7.41128,1.935565 l 4.17397,0.280633 c 0.26663,3.093188 -1.1086,5.575392 -3.67499,8.144884 -0.29987,0.319484 -0.50235,0.668351 -0.50298,1.077576 h 0.003 c -0.33544,0.857172 3.21219,0.549388 6.42219,2.084207 3.02338,1.445589 4.89936,3.143229 7.15122,5.215431 z"
           sodipodi:nodetypes="cccscccccsc" /><path
           id="rect840-9-2-5-1-5-4-9"
           style="fill:#811911;fill-opacity:1;stroke-width:0.31726;stroke-linecap:round;stroke-linejoin:round;stroke-miterlimit:8.1;paint-order:markers fill stroke;stop-color:#000000"
           d="m 121.18034,31.900769 c -1.55917,0.06038 -3.06833,0.521759 -4.58664,0.866288 -0.79239,0.16973 -1.56224,0.44234 -2.35195,0.620521 -0.54597,0.07965 -0.18224,-0.695835 -0.42315,-0.91572 -0.14306,-0.187209 -0.22125,-0.0755 -0.28393,0.107662 -0.61135,1.220388 -1.24138,2.431809 -1.84105,3.657795 -0.18536,0.385204 -0.12138,0.896428 0.20903,1.170013 0.65395,0.521157 1.52213,0.505111 2.30108,0.486983 1.65914,-0.08461 3.25021,-0.635615 4.8739,-0.959723 0.93521,-0.174975 1.76145,-0.404442 2.70791,-0.198463 0.42863,0.155715 0.53678,0.281735 0.80967,0.643877 -1.0492,-1.959563 -1.95271,-2.756906 -1.8024,-4.673302 0.20382,-0.357987 -0.9235,-2.043065 -1.27074,-2.233006 -0.32058,-0.18668 2.01516,1.429325 1.65824,1.427075 z"
           sodipodi:nodetypes="ccccccccccccccc" /><path
           id="rect840-9-2-5-1-5-4-9-5"
           style="fill:#811911;fill-opacity:1;stroke-width:0.31726;stroke-linecap:round;stroke-linejoin:round;stroke-miterlimit:8.1;paint-order:markers fill stroke;stop-color:#000000"
           d="m 144.43403,31.828299 c 1.55917,0.06038 3.06833,0.521759 4.58664,0.866288 0.79239,0.16973 1.56224,0.44234 2.35195,0.620521 0.54597,0.07965 0.18224,-0.695835 0.42315,-0.91572 0.14306,-0.187209 0.22125,-0.0755 0.28393,0.107662 0.61135,1.220388 1.24138,2.431809 1.84105,3.657795 0.18536,0.385204 0.12138,0.896428 -0.20903,1.170013 -0.65395,0.521157 -1.52213,0.505111 -2.30108,0.486983 -1.65914,-0.08461 -3.25021,-0.635615 -4.8739,-0.959723 -0.93521,-0.174975 -1.76145,-0.404442 -2.70791,-0.198463 -0.42863,0.155715 -0.53678,0.281735 -0.80967,0.643877 1.0492,-1.959563 1.95271,-2.756906 1.8024,-4.673302 -0.20382,-0.357987 0.9235,-2.043065 1.27074,-2.233006 0.32058,-0.18668 -2.01516,1.429325 -1.65824,1.427075 z"
           sodipodi:nodetypes="ccccccccccccccc" /></g><path
         id="rect840-9-0-9-7-1-4"
         style="fill:url(#radialGradient3592-5-3-5);fill-opacity:1;stroke-width:0.535005;stroke-linecap:round;stroke-linejoin:round;stroke-miterlimit:8.1;paint-order:markers fill stroke;stop-color:#000000"
         d="m 38.341172,-98.003972 c -5.300184,0.03478 -12.888188,-0.275258 -17.505908,1.923912 -0.991898,0.65025 -3.138474,1.8295 -2.533696,3.2675 3.66903,3.71545 3.889638,9.05723 2.628264,13.6307 0.236375,-0.42822 0.925292,-1.32743 2.211234,-1.9234 3.927982,-1.57032 8.179914,-1.657353 12.375989,-1.822112 4.578013,-0.258191 9.035,-0.216009 13.299963,5.2e-4 4.184382,0.316769 8.448007,0.251792 12.375989,1.822112 1.285943,0.59596 1.97486,1.49517 2.211235,1.92339 -1.261375,-4.57346 -1.040766,-9.91524 2.628263,-13.63069 0.604778,-1.438 -1.541797,-2.61725 -2.533695,-3.2675 -4.617721,-2.19917 -12.205725,-1.842359 -17.505909,-1.923912 -2.576734,0.07545 -5.020654,-0.03832 -7.651729,-5.2e-4 z m 25.063069,18.822622 c 0.02082,0.0755 0.04091,0.15135 0.06253,0.22634 0.05877,0.0594 0.04116,-0.0385 -0.06253,-0.22634 z m -42.47441,-5.1e-4 c -0.103691,0.18784 -0.121295,0.28577 -0.06253,0.22634 0.02162,-0.0751 0.04171,-0.15086 0.06253,-0.22634 z"
         sodipodi:nodetypes="ccccccccccccccccccc" /></g></g></svg>
