<?xml version="1.0" encoding="UTF-8" standalone="no"?>
<!-- Created with Inkscape (http://www.inkscape.org/) -->

<svg
   width="60.580402mm"
   height="29.213739mm"
   viewBox="0 0 60.580404 29.213739"
   version="1.1"
   id="svg1"
   inkscape:version="1.2.2 (732a01da63, 2022-12-09)"
   sodipodi:docname="graphics.svg"
   xml:space="preserve"
   xmlns:inkscape="http://www.inkscape.org/namespaces/inkscape"
   xmlns:sodipodi="http://sodipodi.sourceforge.net/DTD/sodipodi-0.dtd"
   xmlns:xlink="http://www.w3.org/1999/xlink"
   xmlns="http://www.w3.org/2000/svg"
   xmlns:svg="http://www.w3.org/2000/svg"><sodipodi:namedview
     id="namedview1"
     pagecolor="#ffffff"
     bordercolor="#000000"
     borderopacity="0.25"
     inkscape:showpageshadow="2"
     inkscape:pageopacity="0.0"
     inkscape:pagecheckerboard="0"
     inkscape:deskcolor="#d1d1d1"
     inkscape:document-units="mm"
     inkscape:zoom="1"
     inkscape:cx="-238"
     inkscape:cy="-77"
     inkscape:window-width="1920"
     inkscape:window-height="1009"
     inkscape:window-x="1912"
     inkscape:window-y="-8"
     inkscape:window-maximized="1"
     inkscape:current-layer="layer1"
     showgrid="false"
     showguides="false" /><defs
     id="defs1"><linearGradient
       inkscape:collect="always"
       id="linearGradient14039"><stop
         style="stop-color:#fca5a5;stop-opacity:0.3271028"
         offset="0"
         id="stop14035" /><stop
         style="stop-color:#fca5a5;stop-opacity:0;"
         offset="1"
         id="stop14037" /></linearGradient><linearGradient
       inkscape:collect="always"
       id="linearGradient13518"><stop
         style="stop-color:#ff7269;stop-opacity:1;"
         offset="0"
         id="stop13514" /><stop
         style="stop-color:#fca4a3;stop-opacity:0;"
         offset="1"
         id="stop13516" /></linearGradient><linearGradient
       inkscape:collect="always"
       id="linearGradient13058"><stop
         style="stop-color:#fca5a4;stop-opacity:1;"
         offset="0"
         id="stop13054" /><stop
         style="stop-color:#fca5a4;stop-opacity:0;"
         offset="1"
         id="stop13056" /></linearGradient><linearGradient
       inkscape:collect="always"
       xlink:href="#linearGradient13058"
       id="linearGradient13060"
       x1="75.143387"
       y1="-26.751629"
       x2="88.964607"
       y2="-26.751629"
       gradientUnits="userSpaceOnUse" /><linearGradient
       inkscape:collect="always"
       xlink:href="#linearGradient13058"
       id="linearGradient13095"
       gradientUnits="userSpaceOnUse"
       x1="75.143387"
       y1="-26.751629"
       x2="88.964607"
       y2="-26.751629"
       gradientTransform="matrix(-1,0,0,1,118.02322,0.14123514)" /><radialGradient
       inkscape:collect="always"
       xlink:href="#linearGradient13518"
       id="radialGradient13520"
       cx="59.233524"
       cy="-41.460987"
       fx="59.233524"
       fy="-41.460987"
       r="21.33625"
       gradientTransform="matrix(4.2210688,0.04030211,-9.506513e-4,0.09956719,-190.83467,-21.775345)"
       gradientUnits="userSpaceOnUse" /><radialGradient
       inkscape:collect="always"
       xlink:href="#linearGradient14039"
       id="radialGradient14041"
       cx="38.532726"
       cy="-13.794208"
       fx="38.532726"
       fy="-13.794208"
       r="6.6091628"
       gradientTransform="matrix(1,0,0,0.51345248,0,-7.1502958)"
       gradientUnits="userSpaceOnUse" /><radialGradient
       inkscape:collect="always"
       xlink:href="#linearGradient14039"
       id="radialGradient14041-6"
       cx="38.532726"
       cy="-13.794208"
       fx="38.532726"
       fy="-13.794208"
       r="6.6091628"
       gradientTransform="matrix(-1,0,0,0.51345248,119.08425,-6.232411)"
       gradientUnits="userSpaceOnUse" /><filter
       inkscape:collect="always"
       style="color-interpolation-filters:sRGB"
       id="filter30731-1"
       x="-0.68804848"
       y="-0.14788011"
       width="2.3748634"
       height="1.2957602"><feGaussianBlur
         inkscape:collect="always"
         stdDeviation="0.32442693"
         id="feGaussianBlur30733-8" /></filter><filter
       inkscape:collect="always"
       style="color-interpolation-filters:sRGB"
       id="filter30765"
       x="-0.048368782"
       y="-0.029335884"
       width="1.0967376"
       height="1.0586718"><feGaussianBlur
         inkscape:collect="always"
         stdDeviation="0.21668319"
         id="feGaussianBlur30767" /></filter><filter
       inkscape:collect="always"
       style="color-interpolation-filters:sRGB"
       id="filter30769"
       x="-0.044146538"
       y="-0.026775073"
       width="1.0882931"
       height="1.0535501"><feGaussianBlur
         inkscape:collect="always"
         stdDeviation="0.19776832"
         id="feGaussianBlur30771" /></filter><filter
       inkscape:collect="always"
       style="color-interpolation-filters:sRGB"
       id="filter30731-1-5"
       x="-0.68804848"
       y="-0.14788011"
       width="2.3748634"
       height="1.2957602"><feGaussianBlur
         inkscape:collect="always"
         stdDeviation="0.32442693"
         id="feGaussianBlur30733-8-0" /></filter></defs><g
     inkscape:label="Layer 1"
     inkscape:groupmode="layer"
     id="layer1"
     transform="translate(-28.789348,38.722329)"><path
       id="rect840-9-2-5-9-9-0-9-50-2-7"
       style="fill:#cd0b0c;fill-opacity:1;stroke:#901416;stroke-width:0.735;stroke-linecap:round;stroke-linejoin:round;stroke-miterlimit:8.1;stroke-dasharray:none;stroke-opacity:1;paint-order:markers fill stroke;stop-color:#000000"
       d="m 57.175788,-38.354429 c -0.630071,-0.0011 -1.266145,-1.47e-4 -1.915645,0.0052 -5.300179,0.03478 -12.888193,-0.275254 -17.505908,1.923913 -0.918256,0.601974 -2.824701,1.657467 -2.623096,2.951758 -0.0097,0.03258 -0.01898,0.0638 -0.02894,0.09767 0.02869,0.04134 0.05354,0.07692 0.08165,0.117305 0.01121,0.03344 0.0225,0.06704 0.03669,0.100769 0.04461,0.04517 0.08612,0.09181 0.129708,0.137459 0.933038,1.332487 1.534891,2.128012 1.9389,2.781743 0.221652,0.45362 0.413234,0.917916 0.572575,1.391646 -2.871161,0.906867 -5.151268,2.276309 -8.704895,5.376416 l 5.523177,4.217831 0.638204,7.697204 c -0.03486,0.03075 -0.08372,0.0739 -0.08372,0.0739 l 0.0863,-0.04237 0.04186,0.505912 c 0.430311,-0.39598 0.846898,-0.777737 1.260388,-1.147217 3.319606,-2.80848 6.803558,-5.220599 11.171411,-5.500956 0.804702,-0.15883 1.272765,-0.315774 1.141532,-0.651123 h 0.0031 c -5.24e-4,-0.340332 -0.142081,-0.638466 -0.361735,-0.913123 -0.844999,-1.469713 -1.530383,-2.2829 -1.532723,-3.749642 1.787525,-0.164628 3.594537,-0.221934 5.391402,-0.292488 4.578008,-0.258191 9.035005,-0.216012 13.299963,5.17e-4 1.785159,0.135141 3.584809,0.201699 5.366598,0.3545 -0.04427,1.42571 -0.753924,2.237496 -1.607137,3.746541 -0.07393,0.105809 -0.135952,0.214976 -0.181901,0.329179 -0.009,0.01667 -0.01785,0.03276 -0.02687,0.04961 0.0051,-0.0068 0.0095,-0.01199 0.01447,-0.0186 -0.052,0.138761 -0.08089,0.284479 -0.08113,0.438733 h 0.0031 c -0.33544,0.857171 3.211833,0.549293 6.42183,2.08411 3.023377,1.445588 4.899644,3.142986 7.151502,5.215186 l 0.682645,-8.234639 5.523177,-4.217831 c -3.541364,-3.08941 -5.818232,-4.46018 -8.675439,-5.367114 0.187688,-0.55057 0.415588,-1.089283 0.68833,-1.611788 0.374365,-0.577281 0.896729,-1.279985 1.651579,-2.352311 0.09289,-0.101246 0.186991,-0.201774 0.284737,-0.300757 0.02838,-0.06749 0.04896,-0.134184 0.06563,-0.200505 0.02033,-0.02923 0.03828,-0.0545 0.05891,-0.08423 -0.0092,-0.03136 -0.01791,-0.06017 -0.02687,-0.09043 0.135519,-1.267174 -1.727191,-2.299589 -2.631363,-2.89233 -4.617717,-2.199168 -12.20573,-1.842361 -17.505909,-1.923913 -2.006962,0.01938 -3.845869,-0.0025 -5.736084,-0.0057 z"
       sodipodi:nodetypes="cccccccccccccccccccccccccccccccscccccccccccccc"
       inkscape:export-filename="themes\clashy\graphics\ribbon.svg"
       inkscape:export-xdpi="96"
       inkscape:export-ydpi="96" /><g
       id="g18953"
       inkscape:export-filename="themes\clashy\graphics\ribbon.svg"
       inkscape:export-xdpi="96"
       inkscape:export-ydpi="96"><g
         id="g15359"
         inkscape:export-filename="themes\clashy\graphics\ribbon.svg"
         inkscape:export-xdpi="96"
         inkscape:export-ydpi="96"><path
           id="rect840-9-0-9-7-1-4-9"
           style="fill:#1a0200;fill-opacity:0.118227;stroke:none;stroke-width:0.535005;stroke-linecap:round;stroke-linejoin:round;stroke-miterlimit:8.1;paint-order:markers fill stroke;stop-color:#000000"
           d="m 55.208839,-34.855424 c -5.300184,0.03478 -12.888188,-0.275258 -17.505908,1.923912 -0.991898,0.65025 -3.138474,1.8295 -2.533696,3.2675 3.66903,3.71545 3.889638,9.05723 2.628264,13.6307 0.236375,-0.42822 0.925292,-1.32743 2.211234,-1.9234 3.927982,-1.57032 8.179914,-1.657353 12.375989,-1.822112 4.578013,-0.258191 9.035,-0.216009 13.299963,5.2e-4 4.184382,0.316769 8.448007,0.251792 12.375989,1.822112 1.285943,0.59596 1.97486,1.49517 2.211235,1.92339 -1.261375,-4.57346 -1.040766,-9.91524 2.628263,-13.63069 0.604778,-1.438 -1.541797,-2.61725 -2.533695,-3.2675 -4.617721,-2.19917 -12.205725,-1.842359 -17.505909,-1.923912 -2.675953,0.02584 -5.053727,-0.02178 -7.651729,-5.2e-4 z m 25.063069,18.822622 c 0.02082,0.0755 0.04091,0.15135 0.06253,0.22634 0.05877,0.0594 0.04116,-0.0385 -0.06253,-0.22634 z m -42.47441,-5.1e-4 c -0.103691,0.18784 -0.121295,0.28577 -0.06253,0.22634 0.02162,-0.0751 0.04171,-0.15086 0.06253,-0.22634 z"
           sodipodi:nodetypes="ccccccccccccccccccc" /><path
           id="rect840-9-2-5-9-9-0-9-50-2-9"
           style="fill:#1a0200;fill-opacity:0.118227;stroke-width:0.535489;stroke-linecap:round;stroke-linejoin:round;stroke-miterlimit:8.1;paint-order:markers fill stroke;stop-color:#000000"
           d="m 35.224394,-9.5085972 -0.68262,-8.2346838 -5.52316,-4.217811 c 4.91412,-4.286972 7.39232,-5.264687 12.36691,-6.285801 4.55071,-0.934106 7.36515,4.054845 7.41128,1.935565 l -4.17397,0.280633 c -0.26663,3.093188 1.1086,5.575392 3.67499,8.144884 0.29987,0.319484 0.50235,0.668351 0.50298,1.077576 h -0.003 c 0.33544,0.857172 -3.21219,0.549388 -6.42219,2.084207 -3.02338,1.445589 -4.89936,3.143229 -7.15122,5.2154308 z"
           sodipodi:nodetypes="cccscccccsc" /><path
           id="rect840-9-2-5-9-9-0-9-50-2-0-5"
           style="fill:#1a0200;fill-opacity:0.118227;stroke-width:0.535489;stroke-linecap:round;stroke-linejoin:round;stroke-miterlimit:8.1;paint-order:markers fill stroke;stop-color:#000000"
           d="m 82.657922,-9.5634032 0.68262,-8.2346838 5.52316,-4.217811 c -4.91412,-4.286972 -7.392318,-5.264687 -12.366908,-6.285801 -4.55071,-0.934106 -7.36515,4.054845 -7.41128,1.935565 l 4.17397,0.280633 c 0.26663,3.093188 -1.1086,5.575392 -3.67499,8.144884 -0.29987,0.319484 -0.50235,0.668351 -0.50298,1.077576 h 0.003 c -0.33544,0.857172 3.21219,0.549388 6.42219,2.084207 3.02338,1.445589 4.89936,3.143229 7.151218,5.2154308 z"
           sodipodi:nodetypes="cccscccccsc" /><path
           id="rect840-9-2-5-9-9-0-9-50-2"
           style="fill:#cd0b0c;fill-opacity:1;stroke-width:0.535489;stroke-linecap:round;stroke-linejoin:round;stroke-miterlimit:8.1;paint-order:markers fill stroke;stop-color:#000000"
           d="m 35.369775,-10.999441 -0.68262,-8.234684 -5.52316,-4.217811 c 4.91412,-4.286972 7.39232,-5.264687 12.36691,-6.285801 4.55071,-0.934106 7.36515,4.054845 7.41128,1.935565 l -4.17397,0.280633 c -0.26663,3.093188 1.1086,5.575392 3.67499,8.144884 0.29987,0.319484 0.50235,0.668351 0.50298,1.077576 h -0.003 c 0.33544,0.857172 -3.21219,0.549388 -6.42219,2.084207 -3.02338,1.445589 -4.89936,3.143229 -7.15122,5.215431 z"
           sodipodi:nodetypes="cccscccccsc" /><path
           id="rect840-9-2-5-9-9-0-9-50-2-0"
           style="fill:#cd0b0c;fill-opacity:1;stroke-width:0.535489;stroke-linecap:round;stroke-linejoin:round;stroke-miterlimit:8.1;paint-order:markers fill stroke;stop-color:#000000"
           d="m 82.803305,-11.054247 0.68262,-8.234684 5.52316,-4.217811 c -4.91412,-4.286972 -7.39232,-5.264687 -12.36691,-6.285801 -4.55071,-0.934106 -7.36515,4.054845 -7.41128,1.935565 l 4.17397,0.280633 c 0.26663,3.093188 -1.1086,5.575392 -3.67499,8.144884 -0.29987,0.319484 -0.50235,0.668351 -0.50298,1.077576 h 0.003 c -0.33544,0.857172 3.21219,0.549388 6.42219,2.084207 3.02338,1.445589 4.89936,3.143229 7.15122,5.215431 z"
           sodipodi:nodetypes="cccscccccsc" /><path
           id="rect840-9-2-5-1-5-4-9"
           style="fill:#901416;fill-opacity:1;stroke-width:0.31726;stroke-linecap:round;stroke-linejoin:round;stroke-miterlimit:8.1;paint-order:markers fill stroke;stop-color:#000000"
           d="m 47.454725,-24.180636 c -1.55917,0.06038 -3.06833,0.521759 -4.58664,0.866288 -0.79239,0.16973 -1.56224,0.44234 -2.35195,0.620521 -0.54597,0.07965 -0.18224,-0.695835 -0.42315,-0.91572 -0.14306,-0.187209 -0.22125,-0.0755 -0.28393,0.107662 -0.61135,1.220388 -1.24138,2.431809 -1.84105,3.657795 -0.18536,0.385204 -0.12138,0.896428 0.20903,1.170013 0.65395,0.521157 1.52213,0.505111 2.30108,0.486983 1.65914,-0.08461 3.25021,-0.635615 4.8739,-0.959723 0.93521,-0.174975 1.76145,-0.404442 2.70791,-0.198463 0.42863,0.155715 0.53678,0.281735 0.80967,0.643877 -1.0492,-1.959563 -1.95271,-2.756906 -1.8024,-4.673302 0.20382,-0.357987 -0.9235,-2.043065 -1.27074,-2.233006 -0.32058,-0.18668 2.01516,1.429325 1.65824,1.427075 z"
           sodipodi:nodetypes="ccccccccccccccc" /><path
           id="rect840-9-2-5-1-5-4-9-5"
           style="fill:#901416;fill-opacity:1;stroke-width:0.31726;stroke-linecap:round;stroke-linejoin:round;stroke-miterlimit:8.1;paint-order:markers fill stroke;stop-color:#000000"
           d="m 70.708415,-24.253106 c 1.55917,0.06038 3.06833,0.521759 4.58664,0.866288 0.79239,0.16973 1.56224,0.44234 2.35195,0.620521 0.54597,0.07965 0.18224,-0.695835 0.42315,-0.91572 0.14306,-0.187209 0.22125,-0.0755 0.28393,0.107662 0.61135,1.220388 1.24138,2.431809 1.84105,3.657795 0.18536,0.385204 0.12138,0.896428 -0.20903,1.170013 -0.65395,0.521157 -1.52213,0.505111 -2.30108,0.486983 -1.65914,-0.08461 -3.25021,-0.635615 -4.8739,-0.959723 -0.93521,-0.174975 -1.76145,-0.404442 -2.70791,-0.198463 -0.42863,0.155715 -0.53678,0.281735 -0.80967,0.643877 1.0492,-1.959563 1.95271,-2.756906 1.8024,-4.673302 -0.20382,-0.357987 0.9235,-2.043065 1.27074,-2.233006 0.32058,-0.18668 -2.01516,1.429325 -1.65824,1.427075 z"
           sodipodi:nodetypes="ccccccccccccccc" /><path
           style="fill:none;stroke:url(#linearGradient13060);stroke-width:0.43;stroke-linecap:butt;stroke-linejoin:miter;stroke-dasharray:none;stroke-opacity:1"
           d="m 75.171101,-29.862007 c 0,0 4.677217,0.608039 7.249686,1.870887 2.572469,1.262848 6.407787,4.396584 6.407787,4.396584"
           id="path12352" /><path
           style="fill:none;stroke:url(#linearGradient13095);stroke-width:0.43;stroke-linecap:butt;stroke-linejoin:miter;stroke-dasharray:none;stroke-opacity:1"
           d="m 42.852118,-29.720772 c 0,0 -4.677217,0.608039 -7.249686,1.870887 -2.572469,1.262848 -6.407787,4.396584 -6.407787,4.396584"
           id="path12352-5" /><path
           id="rect840-9-0-9-7-1-4"
           style="fill:#e6393a;fill-opacity:1;stroke-width:0.535005;stroke-linecap:round;stroke-linejoin:round;stroke-miterlimit:8.1;paint-order:markers fill stroke;stop-color:#000000"
           d="m 55.26727,-38.330867 c -5.300184,0.03478 -12.888188,-0.275258 -17.505908,1.923912 -0.991898,0.65025 -3.138474,1.8295 -2.533696,3.2675 3.66903,3.71545 3.889638,9.05723 2.628264,13.6307 0.236375,-0.42822 0.925292,-1.32743 2.211234,-1.9234 3.927982,-1.57032 8.179914,-1.657353 12.375989,-1.822112 4.578013,-0.258191 9.035,-0.216009 13.299963,5.2e-4 4.184382,0.316769 8.448007,0.251792 12.375989,1.822112 1.285943,0.59596 1.97486,1.49517 2.211235,1.92339 -1.261375,-4.57346 -1.040766,-9.91524 2.628263,-13.63069 0.604778,-1.438 -1.541797,-2.61725 -2.533695,-3.2675 -4.617721,-2.19917 -12.205725,-1.842359 -17.505909,-1.923912 -2.675953,0.02584 -5.053727,-0.02178 -7.651729,-5.2e-4 z m 25.063069,18.822622 c 0.02082,0.0755 0.04091,0.15135 0.06253,0.22634 0.05877,0.0594 0.04116,-0.0385 -0.06253,-0.22634 z m -42.47441,-5.1e-4 c -0.103691,0.18784 -0.121295,0.28577 -0.06253,0.22634 0.02162,-0.0751 0.04171,-0.15086 0.06253,-0.22634 z"
           sodipodi:nodetypes="ccccccccccccccccccc" /><path
           style="fill:none;stroke:url(#radialGradient13520);stroke-width:0.43;stroke-linecap:butt;stroke-linejoin:miter;stroke-dasharray:none;stroke-opacity:1"
           d="m 38.034002,-19.478585 c 0,0 0.935442,-2.666013 7.530317,-3.414369 6.594877,-0.748355 22.590957,-0.748355 28.016529,0.140317 5.425571,0.888672 6.735192,3.227279 6.735192,3.227279"
           id="path13098" /><path
           style="fill:none;stroke:url(#radialGradient14041);stroke-width:0.43;stroke-linecap:butt;stroke-linejoin:miter;stroke-dasharray:none;stroke-opacity:1"
           d="m 35.241618,-11.462996 c 0,0 3.042709,-2.711979 5.225521,-3.96875 2.182813,-1.256771 7.805208,-2.447396 7.805208,-2.447396"
           id="path13688" /><path
           style="fill:none;stroke:url(#radialGradient14041-6);stroke-width:0.43;stroke-linecap:butt;stroke-linejoin:miter;stroke-dasharray:none;stroke-opacity:1"
           d="m 83.842622,-10.545111 c 0,0 -3.042709,-2.71198 -5.225521,-3.968751 -2.182813,-1.256771 -7.805208,-2.447396 -7.805208,-2.447396"
           id="path13688-6" /></g><path
         style="opacity:1;fill:#cd0b0c;fill-opacity:1;stroke:none;stroke-width:0.264583px;stroke-linecap:butt;stroke-linejoin:miter;stroke-opacity:1;filter:url(#filter30765)"
         d="m 35.109327,-33.357267 c 2.248958,3.241146 2.711979,3.505729 3.042708,5.55625 0.330729,2.050521 -0.264583,8.135937 -0.264583,8.135937 0,0 1.124479,-1.918229 4.034896,-2.910416 2.910416,-0.992188 3.836458,-0.79375 3.836458,-0.79375 0,0 0.330729,-4.828646 -0.198438,-7.9375 -0.529166,-3.108854 -1.984375,-6.085417 -1.984375,-6.085417 0,0 -3.902604,0.264584 -5.953125,1.389063 -2.05052,1.124479 -2.182812,1.521354 -2.513541,2.645833 z"
         id="path18005" /><path
         style="opacity:1;fill:#cd0b0c;fill-opacity:1;stroke:none;stroke-width:0.264583px;stroke-linecap:butt;stroke-linejoin:miter;stroke-opacity:1;filter:url(#filter30769)"
         d="m 83.083021,-33.423414 c -2.248958,3.241146 -2.711979,3.505729 -3.042708,5.55625 -0.330729,2.050521 0.264583,8.135937 0.264583,8.135937 0,0 -1.124479,-1.918229 -4.034896,-2.910416 -2.910416,-0.992188 -3.836458,-0.79375 -3.836458,-0.79375 0,0 -0.330729,-4.828646 0.198438,-7.9375 0.529166,-3.108854 1.984375,-6.085417 1.984375,-6.085417 0,0 3.902604,0.264584 5.953125,1.389063 2.05052,1.124479 2.182812,1.521354 2.513541,2.645833 z"
         id="path18005-9" /></g><path
       style="fill:none;stroke:#901416;stroke-width:0.965;stroke-linecap:round;stroke-linejoin:miter;stroke-dasharray:none;stroke-opacity:1"
       d="m 82.935281,-33.662244 c 0,0 -2.572469,3.379288 -2.946647,6.41948 -0.374177,3.04019 -0.210475,7.577091 -0.210475,7.577091"
       id="path30685"
       sodipodi:nodetypes="csc" /><path
       style="mix-blend-mode:normal;fill:none;stroke:#901416;stroke-width:2.465;stroke-linecap:round;stroke-linejoin:miter;stroke-dasharray:none;stroke-opacity:1;filter:url(#filter30731-1)"
       d="m 50.966005,-32.160379 c 0,0 -2.307886,2.982413 -2.682064,6.022605 -0.374177,3.04019 -0.210475,7.577091 -0.210475,7.577091"
       id="path30685-7-4"
       sodipodi:nodetypes="csc"
       transform="matrix(-1,0,0,1,87.307993,-1.8959348)" /><path
       style="mix-blend-mode:normal;fill:none;stroke:#901416;stroke-width:2.465;stroke-linecap:round;stroke-linejoin:miter;stroke-dasharray:none;stroke-opacity:1;filter:url(#filter30731-1-5)"
       d="m 81.922258,-34.112772 c 0,0 -2.307886,2.982413 -2.682064,6.022605 -0.374177,3.04019 -0.210475,7.577091 -0.210475,7.577091"
       id="path30685-7-4-6"
       sodipodi:nodetypes="csc" /><path
       style="fill:none;stroke:#901416;stroke-width:0.965;stroke-linecap:round;stroke-linejoin:miter;stroke-dasharray:none;stroke-opacity:1"
       d="m 35.267606,-33.726558 c 0,0 2.572469,3.379288 2.946647,6.41948 0.374177,3.04019 0.210475,7.577091 0.210475,7.577091"
       id="path30685-0"
       sodipodi:nodetypes="csc" /></g></svg>
