<?xml version="1.0" encoding="UTF-8" standalone="no"?>
<!-- Created with Inkscape (http://www.inkscape.org/) -->

<svg
   width="11.591018mm"
   height="11.368608mm"
   viewBox="0 0 11.591018 11.368607"
   version="1.1"
   id="svg1"
   inkscape:version="1.2.2 (732a01da63, 2022-12-09)"
   sodipodi:docname="graphics.svg"
   xml:space="preserve"
   xmlns:inkscape="http://www.inkscape.org/namespaces/inkscape"
   xmlns:sodipodi="http://sodipodi.sourceforge.net/DTD/sodipodi-0.dtd"
   xmlns:xlink="http://www.w3.org/1999/xlink"
   xmlns="http://www.w3.org/2000/svg"
   xmlns:svg="http://www.w3.org/2000/svg"><sodipodi:namedview
     id="namedview1"
     pagecolor="#ffffff"
     bordercolor="#000000"
     borderopacity="0.25"
     inkscape:showpageshadow="2"
     inkscape:pageopacity="0.0"
     inkscape:pagecheckerboard="0"
     inkscape:deskcolor="#d1d1d1"
     inkscape:document-units="mm"
     inkscape:zoom="0.70710678"
     inkscape:cx="147.78532"
     inkscape:cy="-231.93102"
     inkscape:window-width="1920"
     inkscape:window-height="1009"
     inkscape:window-x="-8"
     inkscape:window-y="-8"
     inkscape:window-maximized="1"
     inkscape:current-layer="layer1"
     showgrid="false"
     showguides="false" /><defs
     id="defs1"><linearGradient
       inkscape:collect="always"
       id="linearGradient1885"><stop
         style="stop-color:#fff495;stop-opacity:1;"
         offset="0"
         id="stop1881" /><stop
         style="stop-color:#ffe400;stop-opacity:1;"
         offset="1"
         id="stop1883" /></linearGradient><radialGradient
       inkscape:collect="always"
       xlink:href="#linearGradient1885"
       id="radialGradient1887-8"
       cx="248.34157"
       cy="133.30293"
       fx="248.34157"
       fy="133.30293"
       r="5.7820778"
       gradientTransform="matrix(0.30880488,0.44527471,-2.0964431,1.4539156,451.25829,-171.27582)"
       gradientUnits="userSpaceOnUse" /></defs><g
     inkscape:label="Layer 1"
     inkscape:groupmode="layer"
     id="layer1"
     transform="translate(-242.55948,-127.4665)"><g
       id="g8552"
       inkscape:export-filename="themes\clashy\graphics\star.svg"
       inkscape:export-xdpi="96"
       inkscape:export-ydpi="96"><path
         id="path1828-7"
         style="color:#000000;fill:url(#radialGradient1887-8);fill-opacity:1;stroke:none;stroke-width:0.43;stroke-linecap:round;stroke-linejoin:round;stroke-miterlimit:8.1;stroke-dasharray:none;stroke-opacity:1;paint-order:markers fill stroke"
         d="m 248.48563,127.79843 a 0.44454443,0.44454443 0 0 0 -0.42271,0.30645 l -1.11311,3.41167 -3.58842,0.005 a 0.44454443,0.44454443 0 0 0 -0.26148,0.80357 l 2.9006,2.11253 -1.10433,3.41478 a 0.44454443,0.44454443 0 0 0 0.68368,0.49661 l 2.90577,-2.10581 2.90576,2.10581 a 0.44454443,0.44454443 0 0 0 0.68368,-0.49661 l -1.10484,-3.41478 2.9006,-2.11253 a 0.44454443,0.44454443 0 0 0 -0.26148,-0.80357 l -3.5879,-0.005 -1.11362,-3.41167 a 0.44454443,0.44454443 0 0 0 -0.4222,-0.30645 z" /><path
         id="path1828-8"
         style="color:#000000;fill:#ffc335;fill-opacity:1;stroke:none;stroke-width:0.43;stroke-linecap:round;stroke-linejoin:round;stroke-miterlimit:8.1;stroke-dasharray:none;stroke-opacity:1;paint-order:markers fill stroke"
         d="m 248.31966,127.88706 a 0.44454443,0.44454443 0 0 1 0.42271,0.30644 l 1.11311,3.41168 3.58893,0.005 a 0.44454443,0.44454443 0 0 1 0.26096,0.80357 l -2.90059,2.11253 1.10484,3.41478 a 0.44454443,0.44454443 0 0 1 -0.6842,0.49661 l -2.90576,-2.10581 -0.0827,0.0599 v -8.49405 a 0.44454443,0.44454443 0 0 1 0.0827,-0.0103 z" /><path
         id="path1828"
         style="color:#000000;fill:none;fill-opacity:1;stroke:#571c00;stroke-width:0.43;stroke-linecap:round;stroke-linejoin:round;stroke-miterlimit:8.1;stroke-dasharray:none;stroke-opacity:1;paint-order:markers fill stroke"
         d="m 248.34183,127.98575 a 0.44454443,0.44454443 0 0 0 -0.42271,0.30645 l -1.11311,3.41167 -3.58842,0.005 a 0.44454443,0.44454443 0 0 0 -0.26148,0.80357 l 2.9006,2.11253 -1.10433,3.41478 a 0.44454443,0.44454443 0 0 0 0.68368,0.49661 l 2.90577,-2.10581 2.90576,2.10581 a 0.44454443,0.44454443 0 0 0 0.68368,-0.49661 l -1.10484,-3.41478 2.9006,-2.11253 a 0.44454443,0.44454443 0 0 0 -0.26148,-0.80357 l -3.5879,-0.005 -1.11362,-3.41167 a 0.44454443,0.44454443 0 0 0 -0.4222,-0.30645 z" /><path
         id="path1828-3"
         style="color:#000000;fill:none;fill-opacity:1;stroke:#6c3c00;stroke-width:0.43;stroke-linecap:round;stroke-linejoin:round;stroke-miterlimit:8.1;stroke-dasharray:none;stroke-opacity:1;paint-order:markers fill stroke"
         d="m 248.36869,127.6815 a 0.44454443,0.44454443 0 0 0 -0.42271,0.30645 l -1.11311,3.41167 -3.58842,0.005 a 0.44454443,0.44454443 0 0 0 -0.26148,0.80357 l 2.9006,2.11253 -1.10433,3.41478 a 0.44454443,0.44454443 0 0 0 0.68368,0.49661 l 2.90577,-2.10581 2.90576,2.10581 a 0.44454443,0.44454443 0 0 0 0.68368,-0.49661 l -1.10484,-3.41478 2.9006,-2.11253 a 0.44454443,0.44454443 0 0 0 -0.26148,-0.80357 l -3.5879,-0.005 -1.11362,-3.41167 a 0.44454443,0.44454443 0 0 0 -0.4222,-0.30645 z" /></g></g></svg>
