<?xml version="1.0" encoding="UTF-8" standalone="no"?>
<!-- Created with Inkscape (http://www.inkscape.org/) -->

<svg
   width="60.844852mm"
   height="29.077913mm"
   viewBox="0 0 60.844854 29.077913"
   version="1.1"
   id="svg1"
   inkscape:version="1.2.2 (732a01da63, 2022-12-09)"
   sodipodi:docname="graphics.svg"
   xml:space="preserve"
   xmlns:inkscape="http://www.inkscape.org/namespaces/inkscape"
   xmlns:sodipodi="http://sodipodi.sourceforge.net/DTD/sodipodi-0.dtd"
   xmlns:xlink="http://www.w3.org/1999/xlink"
   xmlns="http://www.w3.org/2000/svg"
   xmlns:svg="http://www.w3.org/2000/svg"><sodipodi:namedview
     id="namedview1"
     pagecolor="#ffffff"
     bordercolor="#000000"
     borderopacity="0.25"
     inkscape:showpageshadow="2"
     inkscape:pageopacity="0.0"
     inkscape:pagecheckerboard="0"
     inkscape:deskcolor="#d1d1d1"
     inkscape:document-units="mm"
     inkscape:zoom="0.70710678"
     inkscape:cx="35.355339"
     inkscape:cy="-195.16147"
     inkscape:window-width="1920"
     inkscape:window-height="1009"
     inkscape:window-x="1912"
     inkscape:window-y="-8"
     inkscape:window-maximized="1"
     inkscape:current-layer="layer1"
     showgrid="false"
     showguides="false" /><defs
     id="defs1"><linearGradient
       inkscape:collect="always"
       id="linearGradient14039"><stop
         style="stop-color:#fca5a5;stop-opacity:0.3271028"
         offset="0"
         id="stop14035" /><stop
         style="stop-color:#fca5a5;stop-opacity:0;"
         offset="1"
         id="stop14037" /></linearGradient><linearGradient
       inkscape:collect="always"
       id="linearGradient13058"><stop
         style="stop-color:#fca5a4;stop-opacity:1;"
         offset="0"
         id="stop13054" /><stop
         style="stop-color:#fca5a4;stop-opacity:0;"
         offset="1"
         id="stop13056" /></linearGradient><linearGradient
       inkscape:collect="always"
       xlink:href="#linearGradient13058"
       id="linearGradient13060"
       x1="75.143387"
       y1="-26.751629"
       x2="88.964607"
       y2="-26.751629"
       gradientUnits="userSpaceOnUse"
       gradientTransform="translate(-0.49135121,-2.935369)" /><linearGradient
       inkscape:collect="always"
       xlink:href="#linearGradient13058"
       id="linearGradient13095"
       gradientUnits="userSpaceOnUse"
       x1="75.143387"
       y1="-26.751629"
       x2="88.964607"
       y2="-26.751629"
       gradientTransform="matrix(-1,0,0,1,117.53187,-2.7941339)" /><radialGradient
       inkscape:collect="always"
       xlink:href="#linearGradient14039"
       id="radialGradient14041"
       cx="38.532726"
       cy="-13.794208"
       fx="38.532726"
       fy="-13.794208"
       r="6.6091628"
       gradientTransform="matrix(1,0,0,0.51345248,-0.49135121,-10.085665)"
       gradientUnits="userSpaceOnUse" /><radialGradient
       inkscape:collect="always"
       xlink:href="#linearGradient14039"
       id="radialGradient14041-6"
       cx="38.532726"
       cy="-13.794208"
       fx="38.532726"
       fy="-13.794208"
       r="6.6091628"
       gradientTransform="matrix(-1,0,0,0.51345248,118.5929,-9.16778)"
       gradientUnits="userSpaceOnUse" /></defs><g
     inkscape:label="Layer 1"
     inkscape:groupmode="layer"
     id="layer1"
     transform="translate(-28.148273,41.521883)"><g
       id="g7835"
       inkscape:export-filename="themes\clashy\graphics\ribbon.svg"
       inkscape:export-xdpi="96"
       inkscape:export-ydpi="96"><path
         id="rect840-9-2-5-9-9-0-9-50-2-95"
         style="fill:#cd0b0c;fill-opacity:1;stroke:#901416;stroke-width:1;stroke-linecap:round;stroke-linejoin:round;stroke-miterlimit:8.1;stroke-dasharray:none;stroke-opacity:1;paint-order:markers fill stroke;stop-color:#000000"
         d="m 43.401272,-33.389362 c 0,0 -2.554037,0.44142 -6.294115,1.746374 -2.757001,0.907652 -5.007532,2.285922 -8.458915,5.296834 l 5.523177,4.21783 0.682646,8.23464 c 2.251858,-2.0722 4.127608,-3.770115 7.150985,-5.215702 3.209996,-1.534818 6.757786,-1.22694 6.422347,-2.084111 h 0.0031 c -5.23e-4,-0.340062 -0.141865,-0.638129 -0.361218,-0.912606 -0.845201,-1.47017 -1.531481,-2.283081 -1.533757,-3.750158 1.787691,-0.164665 3.594885,-0.221929 5.391919,-0.292489 4.578009,-0.258191 9.035005,-0.216012 13.299964,5.17e-4 1.7853,0.135152 3.58467,0.201673 5.366597,0.3545 -0.04428,1.427411 -0.755701,2.239302 -1.610237,3.751709 -0.072,0.103704 -0.133137,0.210701 -0.178284,0.322461 -0.0093,0.0172 -0.0186,0.03378 -0.02791,0.05116 0.0055,-0.0073 0.01012,-0.01303 0.0155,-0.02015 -0.05237,0.139226 -0.08193,0.285455 -0.08217,0.440283 h 0.0031 c -0.33544,0.857171 3.21235,0.549293 6.422347,2.08411 3.023377,1.445588 4.899127,3.143503 7.150984,5.215703 l 0.682646,-8.235156 5.523177,-4.217314 c -3.540085,-3.088293 -5.816066,-4.459656 -8.671822,-5.366598 -4.702328,-1.577728 -7.51285,-0.963312 -7.068158,-1.670082 -10.61523,-0.895301 -23.951569,-0.0096 -29.351903,0.04824 z"
         sodipodi:nodetypes="cccccscccccccccccccscccccc" /><path
         id="rect840-9-0-9-7-1-4-9"
         style="fill:#1a0200;fill-opacity:0.118227;stroke:none;stroke-width:0.535005;stroke-linecap:round;stroke-linejoin:round;stroke-miterlimit:8.1;paint-order:markers fill stroke;stop-color:#000000"
         d="m 54.717488,-37.790793 c -5.300184,0.03478 -12.888188,-0.275258 -17.505908,1.923912 -0.991898,0.65025 -3.138474,1.8295 -2.533696,3.2675 3.66903,3.71545 3.889638,9.05723 2.628264,13.6307 0.236375,-0.42822 0.925292,-1.32743 2.211234,-1.9234 3.927982,-1.57032 8.179914,-1.657353 12.375989,-1.822112 4.578013,-0.258191 9.035,-0.216009 13.299963,5.2e-4 4.184382,0.316769 8.448007,0.251792 12.375989,1.822112 1.285943,0.59596 1.97486,1.49517 2.211235,1.92339 -1.261375,-4.57346 -1.040766,-9.91524 2.628263,-13.63069 0.604778,-1.438 -1.541797,-2.61725 -2.533695,-3.2675 -4.617721,-2.19917 -12.205725,-1.842359 -17.505909,-1.923912 -2.675953,0.02584 -5.053727,-0.02178 -7.651729,-5.2e-4 z m 25.063069,18.822622 c 0.02082,0.0755 0.04091,0.15135 0.06253,0.22634 0.05877,0.0594 0.04116,-0.0385 -0.06253,-0.22634 z m -42.47441,-5.1e-4 c -0.103691,0.18784 -0.121295,0.28577 -0.06253,0.22634 0.02162,-0.0751 0.04171,-0.15086 0.06253,-0.22634 z"
         sodipodi:nodetypes="ccccccccccccccccccc" /><path
         id="rect840-9-2-5-9-9-0-9-50-2-9"
         style="fill:#1a0200;fill-opacity:0.118227;stroke-width:0.535489;stroke-linecap:round;stroke-linejoin:round;stroke-miterlimit:8.1;paint-order:markers fill stroke;stop-color:#000000"
         d="m 34.733043,-12.443966 -0.68262,-8.234684 -5.52316,-4.217811 c 4.91412,-4.286972 7.39232,-5.264687 12.36691,-6.285801 4.55071,-0.934106 7.36515,4.054845 7.41128,1.935565 l -4.17397,0.280633 c -0.26663,3.093188 1.1086,5.575392 3.67499,8.144884 0.29987,0.319484 0.50235,0.668351 0.50298,1.077576 h -0.003 c 0.33544,0.857172 -3.21219,0.549388 -6.42219,2.084207 -3.02338,1.445589 -4.89936,3.143229 -7.15122,5.215431 z"
         sodipodi:nodetypes="cccscccccsc" /><path
         id="rect840-9-2-5-9-9-0-9-50-2-0-5"
         style="fill:#1a0200;fill-opacity:0.118227;stroke-width:0.535489;stroke-linecap:round;stroke-linejoin:round;stroke-miterlimit:8.1;paint-order:markers fill stroke;stop-color:#000000"
         d="m 82.166571,-12.498772 0.68262,-8.234684 5.52316,-4.217811 c -4.91412,-4.286972 -7.392318,-5.264687 -12.366908,-6.285801 -4.55071,-0.934106 -7.36515,4.054845 -7.41128,1.935565 l 4.17397,0.280633 c 0.26663,3.093188 -1.1086,5.575392 -3.67499,8.144884 -0.29987,0.319484 -0.50235,0.668351 -0.50298,1.077576 h 0.003 c -0.33544,0.857172 3.21219,0.549388 6.42219,2.084207 3.02338,1.445589 4.89936,3.143229 7.151218,5.215431 z"
         sodipodi:nodetypes="cccscccccsc" /><path
         id="rect840-9-2-5-9-9-0-9-50-2"
         style="fill:#cd0b0c;fill-opacity:1;stroke-width:0.535489;stroke-linecap:round;stroke-linejoin:round;stroke-miterlimit:8.1;paint-order:markers fill stroke;stop-color:#000000"
         d="m 34.878424,-13.93481 -0.68262,-8.234684 -5.52316,-4.217811 c 4.91412,-4.286972 7.39232,-5.264687 12.36691,-6.285801 4.55071,-0.934106 7.36515,4.054845 7.41128,1.935565 l -4.17397,0.280633 c -0.26663,3.093188 1.1086,5.575392 3.67499,8.144884 0.29987,0.319484 0.50235,0.668351 0.50298,1.077576 h -0.003 c 0.33544,0.857172 -3.21219,0.549388 -6.42219,2.084207 -3.02338,1.445589 -4.89936,3.143229 -7.15122,5.215431 z"
         sodipodi:nodetypes="cccscccccsc" /><path
         id="rect840-9-2-5-9-9-0-9-50-2-0"
         style="fill:#cd0b0c;fill-opacity:1;stroke-width:0.535489;stroke-linecap:round;stroke-linejoin:round;stroke-miterlimit:8.1;paint-order:markers fill stroke;stop-color:#000000"
         d="m 82.311954,-13.989616 0.68262,-8.234684 5.52316,-4.217811 c -4.91412,-4.286972 -7.39232,-5.264687 -12.36691,-6.285801 -4.55071,-0.934106 -7.36515,4.054845 -7.41128,1.935565 l 4.17397,0.280633 c 0.26663,3.093188 -1.1086,5.575392 -3.67499,8.144884 -0.29987,0.319484 -0.50235,0.668351 -0.50298,1.077576 h 0.003 c -0.33544,0.857172 3.21219,0.549388 6.42219,2.084207 3.02338,1.445589 4.89936,3.143229 7.15122,5.215431 z"
         sodipodi:nodetypes="cccscccccsc" /><path
         id="rect840-9-2-5-1-5-4-9"
         style="fill:#901416;fill-opacity:1;stroke-width:0.31726;stroke-linecap:round;stroke-linejoin:round;stroke-miterlimit:8.1;paint-order:markers fill stroke;stop-color:#000000"
         d="m 46.963374,-27.116005 c -1.55917,0.06038 -3.06833,0.521759 -4.58664,0.866288 -0.79239,0.16973 -1.56224,0.44234 -2.35195,0.620521 -0.54597,0.07965 -0.18224,-0.695835 -0.42315,-0.91572 -0.14306,-0.187209 -0.22125,-0.0755 -0.28393,0.107662 -0.61135,1.220388 -1.24138,2.431809 -1.84105,3.657795 -0.18536,0.385204 -0.12138,0.896428 0.20903,1.170013 0.65395,0.521157 1.52213,0.505111 2.30108,0.486983 1.65914,-0.08461 3.25021,-0.635615 4.8739,-0.959723 0.93521,-0.174975 1.76145,-0.404442 2.70791,-0.198463 0.42863,0.155715 0.53678,0.281735 0.80967,0.643877 -1.0492,-1.959563 -1.95271,-2.756906 -1.8024,-4.673302 0.20382,-0.357987 -0.9235,-2.043065 -1.27074,-2.233006 -0.32058,-0.18668 2.01516,1.429325 1.65824,1.427075 z"
         sodipodi:nodetypes="ccccccccccccccc" /><path
         id="rect840-9-2-5-1-5-4-9-5"
         style="fill:#901416;fill-opacity:1;stroke-width:0.31726;stroke-linecap:round;stroke-linejoin:round;stroke-miterlimit:8.1;paint-order:markers fill stroke;stop-color:#000000"
         d="m 70.217064,-27.188475 c 1.55917,0.06038 3.06833,0.521759 4.58664,0.866288 0.79239,0.16973 1.56224,0.44234 2.35195,0.620521 0.54597,0.07965 0.18224,-0.695835 0.42315,-0.91572 0.14306,-0.187209 0.22125,-0.0755 0.28393,0.107662 0.61135,1.220388 1.24138,2.431809 1.84105,3.657795 0.18536,0.385204 0.12138,0.896428 -0.20903,1.170013 -0.65395,0.521157 -1.52213,0.505111 -2.30108,0.486983 -1.65914,-0.08461 -3.25021,-0.635615 -4.8739,-0.959723 -0.93521,-0.174975 -1.76145,-0.404442 -2.70791,-0.198463 -0.42863,0.155715 -0.53678,0.281735 -0.80967,0.643877 1.0492,-1.959563 1.95271,-2.756906 1.8024,-4.673302 -0.20382,-0.357987 0.9235,-2.043065 1.27074,-2.233006 0.32058,-0.18668 -2.01516,1.429325 -1.65824,1.427075 z"
         sodipodi:nodetypes="ccccccccccccccc" /><path
         style="fill:none;stroke:url(#linearGradient13060);stroke-width:0.43;stroke-linecap:butt;stroke-linejoin:miter;stroke-dasharray:none;stroke-opacity:1"
         d="m 74.67975,-32.797376 c 0,0 4.677217,0.608039 7.249686,1.870887 2.572469,1.262848 6.407787,4.396584 6.407787,4.396584"
         id="path12352" /><path
         style="fill:none;stroke:url(#linearGradient13095);stroke-width:0.43;stroke-linecap:butt;stroke-linejoin:miter;stroke-dasharray:none;stroke-opacity:1"
         d="m 42.360767,-32.656141 c 0,0 -4.677217,0.608039 -7.249686,1.870887 -2.572469,1.262848 -6.407787,4.396584 -6.407787,4.396584"
         id="path12352-5" /><path
         id="rect840-9-0-9-7-1-4"
         style="fill:#e6393a;fill-opacity:1;stroke:#901416;stroke-width:0.5;stroke-linecap:round;stroke-linejoin:round;stroke-miterlimit:8.1;stroke-dasharray:none;stroke-opacity:1;paint-order:markers fill stroke;stop-color:#000000"
         d="m 54.775919,-41.266236 c -5.300184,0.03478 -12.888188,-0.275258 -17.505908,1.923912 -0.991898,0.65025 -3.138474,1.8295 -2.533696,3.2675 3.66903,3.71545 4.123499,9.220933 2.862125,13.794403 0.236375,-0.42822 0.691431,-1.491133 1.977373,-2.087103 3.927982,-1.57032 8.179914,-1.657353 12.375989,-1.822112 4.578013,-0.258191 9.035,-0.216009 13.299963,5.2e-4 4.184382,0.316769 8.448007,0.251792 12.375989,1.822112 1.285943,0.59596 1.68838,1.460091 1.924755,1.888311 -1.261375,-4.57346 -0.754286,-9.880161 2.914743,-13.595611 0.604778,-1.438 -1.541797,-2.61725 -2.533695,-3.2675 -4.617721,-2.19917 -12.205725,-1.842359 -17.505909,-1.923912 -2.675953,0.02584 -5.053727,-0.02178 -7.651729,-5.2e-4 z m 24.647966,19.114948 c 0.02082,0.0755 -0.24557,-0.561926 -0.22395,-0.486936 0.05877,0.0594 0.32764,0.674776 0.22395,0.486936 z m -41.778674,-0.164213 c -0.103691,0.18784 -0.03944,0.16884 0.01932,0.10941 0.02162,-0.0751 -0.04014,-0.03393 -0.01932,-0.10941 z"
         sodipodi:nodetypes="ccccccccccccccccccc" /><path
         style="fill:none;stroke:url(#radialGradient14041);stroke-width:0.43;stroke-linecap:butt;stroke-linejoin:miter;stroke-dasharray:none;stroke-opacity:1"
         d="m 34.750267,-14.398365 c 0,0 3.042709,-2.711979 5.225521,-3.96875 2.182813,-1.256771 7.805208,-2.447396 7.805208,-2.447396"
         id="path13688" /><path
         style="fill:none;stroke:url(#radialGradient14041-6);stroke-width:0.43;stroke-linecap:butt;stroke-linejoin:miter;stroke-dasharray:none;stroke-opacity:1"
         d="m 83.351271,-13.48048 c 0,0 -3.042709,-2.71198 -5.225521,-3.968751 -2.182813,-1.256771 -7.805208,-2.447396 -7.805208,-2.447396"
         id="path13688-6" /><path
         id="path5071"
         style="fill:#901416;fill-opacity:0.410509;stroke:none;stroke-width:0.264583px;stroke-linecap:butt;stroke-linejoin:miter;stroke-opacity:1"
         d="m 62.608423,-41.228106 c -4.707977,-0.0062 -10.189526,0.07078 -12.507764,0.06821 -9.316043,-0.01028 -13.647235,2.128264 -13.968656,2.503207 -0.640941,0.747664 -1.508949,1.465028 -1.475879,2.490287 0,0 2.778643,2.287718 3.473173,5.793445 0.69453,3.505725 -0.442867,7.029028 -0.442867,7.029028 l 2.811198,-1.223698 c -6.56073,-18.230571 43.449804,-16.486865 35.990568,-0.149345 l 2.811198,1.223698 c 0,0 -0.529166,-3.406514 0.165364,-6.912239 0.694531,-3.505727 3.075782,-5.88698 3.075782,-5.88698 0.03307,-1.025258 -0.959116,-2.083595 -1.686719,-2.513541 -0.727603,-0.429948 -1.389063,-0.694531 -1.389063,-0.694531 0,0 -0.06244,0.02643 -0.163814,0.07441 -0.05794,-0.109605 -0.15656,-0.209762 -0.310575,-0.295073 -0.97943,-0.542517 -6.05769,-1.123692 -9.59373,-1.370459 -1.417099,-0.09889 -3.96343,-0.132685 -6.788216,-0.136426 z"
         sodipodi:nodetypes="ssscsccccscsccsss" /></g></g></svg>
